<svg width="90" height="89" viewBox="0 0 90 89" fill="none" xmlns="http://www.w3.org/2000/svg">
<path d="M3.71558 3.7832H85.4761V84.7881H3.71558V3.7832Z" fill="url(#paint0_radial_167_586)"/>
<path d="M3.71558 3.78375H85.4761V84.7886H3.71558V3.78375ZM0 88.5724H89.2095V0H0V88.5724ZM63.1112 42.6945C65.0047 42.6945 65.6835 42.6945 65.8622 42.6217C65.8622 42.3488 65.9336 42.1669 65.9336 41.985C65.9336 39.9476 64.969 36.1639 61.1105 36.1639C57.5378 36.1639 56.0194 39.3473 55.6443 42.7127H63.1112V42.6945ZM55.5729 47.8789C55.6443 52.9906 58.0201 56.4287 63.6828 56.4287C65.88 56.4287 67.7735 56.1195 69.7385 55.2645C70.0064 55.1554 70.1851 55.1917 70.1851 55.5374V60.2671C70.1851 60.6491 70.0779 60.831 69.8099 61.0311C67.845 62.0134 65.3798 62.4682 62.3431 62.4682C52.5361 62.4682 48.8562 55.0826 48.8562 46.8784C48.8562 37.9466 53.3935 30.6338 61.3784 30.6338C69.4884 30.6338 72.3108 37.5646 72.3108 43.2038C72.3108 45.0229 72.2036 46.4964 72.0071 47.2241C71.9357 47.5333 71.8285 47.6424 71.5248 47.7152C70.7746 47.8244 68.5952 47.9881 65.3262 47.9881H55.5907V47.8789H55.5729ZM35.6374 44.0224C34.6013 39.8203 32.0647 30.6702 31.1358 26.2315H31.0644C30.2784 30.652 28.2419 38.1467 26.7236 44.0224H35.6374ZM25.2052 50.1528L22.2756 61.4677C22.2041 61.7769 22.097 61.8861 21.7218 61.8861H16.2378C15.8626 61.8861 15.7912 61.7769 15.8626 61.3221L26.4199 23.7394C26.5985 23.0663 26.7236 22.5206 26.795 20.6287C26.795 20.3558 26.9022 20.2467 27.0987 20.2467H34.905C35.1729 20.2467 35.2801 20.3194 35.3516 20.6287L47.1592 61.3949C47.2307 61.7042 47.1592 61.8861 46.8555 61.8861H40.7284C40.4247 61.8861 40.2461 61.7769 40.1747 61.5041L37.12 50.1528H25.2052Z" fill="#D8A1FF"/>
<defs>
<radialGradient id="paint0_radial_167_586" cx="0" cy="0" r="1" gradientUnits="userSpaceOnUse" gradientTransform="translate(30.6681 21.9444) scale(62.1407 61.2673)">
<stop stop-color="#442F55" stop-opacity="0.98"/>
<stop offset="1" stop-color="#12002C"/>
</radialGradient>
</defs>
</svg>
