<svg width="90" height="89" viewBox="0 0 90 89" fill="none" xmlns="http://www.w3.org/2000/svg">
<path d="M3.71558 3.7832H85.476V84.7881H3.71558V3.7832Z" fill="url(#paint0_radial_167_573)"/>
<path d="M3.71557 3.78375H85.476V84.7886H3.71557V3.78375ZM0 88.5724H89.2095V0H0V88.5724ZM58.431 31.5797C58.431 31.2705 58.5381 31.1249 58.8775 31.1249H64.7188C65.0225 31.1249 65.1654 31.2341 65.1654 31.5797V61.4495C65.1654 61.7587 65.094 61.9043 64.7188 61.9043H58.949C58.5739 61.9043 58.4667 61.7224 58.4667 61.4131V31.5797H58.431ZM58.0201 22.9753C58.0201 20.5559 59.6992 19.1188 61.8071 19.1188C64.0758 19.1188 65.5942 20.6651 65.5942 22.9753C65.5942 25.4675 64.0043 26.8319 61.7357 26.8319C59.5921 26.85 58.0201 25.4857 58.0201 22.9753ZM41.3 44.0224C40.2639 39.8203 37.7988 30.6702 36.8699 26.2315H36.7985C36.0125 30.652 34.0475 38.1467 32.4934 44.0224H41.3ZM30.975 50.1528L28.0454 61.5041C27.974 61.8133 27.8668 61.8861 27.4917 61.8861H22.0255C21.6504 61.8861 21.5789 61.7769 21.6504 61.3221L32.2076 23.703C32.3862 23.0299 32.5113 22.4114 32.5827 20.5559C32.5827 20.2831 32.6899 20.1739 32.8864 20.1739H40.6927C40.9606 20.1739 41.0678 20.2467 41.1393 20.5559L52.9648 61.3949C53.0362 61.7042 52.9648 61.8861 52.6611 61.8861H46.4982C46.1946 61.8861 46.0159 61.8133 45.9445 61.5404L42.8899 50.1528H30.975Z" fill="#FF7F18"/>
<defs>
<radialGradient id="paint0_radial_167_573" cx="0" cy="0" r="1" gradientUnits="userSpaceOnUse" gradientTransform="translate(30.6702 21.9605) scale(62.1406 61.2673)">
<stop stop-color="#423325" stop-opacity="0.98"/>
<stop offset="1" stop-color="#1C0A00"/>
</radialGradient>
</defs>
</svg>
