<svg width="40" height="40" viewBox="0 0 40 40" fill="none" xmlns="http://www.w3.org/2000/svg">
<path d="M19.5537 0.5C30.0406 0.5 38.6084 9.24581 38.6084 19.999C38.6084 30.7522 30.0406 39.498 19.5537 39.498C9.06702 39.4978 0.5 30.7521 0.5 19.999C0.5 9.24595 9.06702 0.500232 19.5537 0.5ZM23.5225 25.0088C20.1408 25.9927 16.6033 28.5444 13.9229 31.0049C12.628 32.1832 11.5824 33.3025 10.7432 34.2188L10.3311 34.6689L10.8535 34.9844C13.3991 36.5187 16.3555 37.4209 19.5449 37.4209C21.9385 37.4209 24.196 36.9154 26.2578 36.0244L26.6064 35.874L26.5547 35.498C26.0704 31.9245 25.2163 28.5186 24.1357 25.3291L23.9824 24.875L23.5225 25.0088ZM35.4512 24.3867C33.9911 24.2219 32.1396 24.0557 29.792 24.1436H29.7861C28.7751 24.1923 27.6988 24.2896 26.6045 24.4355L26.0098 24.5156L26.1953 25.0859C27.1191 27.9298 27.8834 30.9424 28.377 34.0762L28.501 34.8652L29.1562 34.4082C32.3422 32.1896 34.7523 28.8927 35.875 25.0225L36.04 24.4531L35.4512 24.3867ZM19.7188 15.9893C12.006 18.1804 5.21126 18.1137 3.09473 18.0283L2.6123 18.0088L2.5752 18.4893C2.53784 18.9764 2.49902 19.4768 2.49902 20.0088C2.49907 25.2424 4.76315 29.9145 8.33398 33.1113L8.70703 33.4453L9.04004 33.0723C9.93517 32.0709 11.136 30.7951 12.5957 29.4639L12.5977 29.4619C15.3439 26.9303 18.8776 24.2518 22.7266 23.083L23.2432 22.9258L23.0469 22.4229C22.1853 20.2152 21.2582 18.1628 20.3027 16.2471L20.1172 15.876L19.7188 15.9893ZM31.6797 8.625C30.0237 10.6461 27.1488 13.2715 22.5967 15.0527L22.0898 15.251L22.3301 15.7393C23.3115 17.7373 24.2633 19.8667 25.1309 22.166L25.2744 22.5449L25.6748 22.4834C28.9671 21.9807 32.0104 21.9802 34.3096 22.1602V22.1611C34.9872 22.2173 35.3741 22.2814 35.9268 22.3594L36.4385 22.4316L36.4941 21.918C36.5616 21.2874 36.5996 20.6536 36.5996 19.999C36.5996 15.6455 35.0223 11.6772 32.4492 8.62012L32.0615 8.15918L31.6797 8.625ZM12.3838 4.21094C7.88775 6.33179 4.48136 10.3832 3.13672 15.3301L2.9707 15.9404L3.60352 15.9609C6.07941 16.0389 11.998 15.9218 18.5557 14.165L19.1738 13.999L18.8633 13.4395C16.3201 8.85624 14.1814 5.92273 12.9961 4.36133L12.751 4.03809L12.3838 4.21094ZM19.5537 2.57715C18.1347 2.57719 16.7587 2.77589 15.4561 3.10156L14.7295 3.2832L15.1758 3.88477C16.5664 5.75564 18.5646 8.58152 20.957 13.0068L21.1631 13.3887L21.5703 13.2373C26.0974 11.5563 28.8109 8.98526 30.2959 7.11914L30.6016 6.73438L30.2227 6.42188C27.3073 4.01482 23.6045 2.57715 19.5537 2.57715Z" fill="#070707" stroke="#070707"/>
</svg>
