<svg width="41" height="40" viewBox="0 0 41 40" fill="none" xmlns="http://www.w3.org/2000/svg">
<g clip-path="url(#clip0_167_538)">
<path d="M34.2354 0H5.87564C2.63578 0 0 2.62848 0 5.85938V34.1406C0 37.3715 2.63578 40 5.87564 40H34.2354C37.4753 40 40.111 37.3715 40.111 34.1406V5.85938C40.111 2.62848 37.4753 0 34.2354 0ZM37.7608 34.1406C37.7608 36.0791 36.1793 37.6562 34.2354 37.6562H5.87564C3.93178 37.6562 2.35026 36.0791 2.35026 34.1406V5.85938C2.35026 3.9209 3.93178 2.34375 5.87564 2.34375H34.2354C36.1793 2.34375 37.7608 3.9209 37.7608 5.85938V34.1406Z" fill="#070707" stroke="#070707" stroke-width="0.5"/>
<path d="M18.8804 16.4844C18.8804 13.8995 16.7719 11.7969 14.1799 11.7969H7.12915V28.2031H14.1799C16.7719 28.2031 18.8804 26.1005 18.8804 23.5156C18.8804 22.1167 18.262 20.8597 17.2839 20C18.262 19.1403 18.8804 17.8833 18.8804 16.4844ZM16.5302 23.5156C16.5302 24.808 15.4759 25.8594 14.1799 25.8594H9.47941V21.1719H14.1799C15.4759 21.1719 16.5302 22.2232 16.5302 23.5156ZM9.47941 18.8281V14.1406H14.1799C15.4759 14.1406 16.5302 15.192 16.5302 16.4844C16.5302 17.7768 15.4759 18.8281 14.1799 18.8281H9.47941Z" fill="#070707" stroke="#070707" stroke-width="0.5"/>
<path d="M27.1064 16.4844C23.8665 16.4844 21.2307 19.1129 21.2307 22.3438C21.2307 25.5746 23.8665 28.2031 27.1064 28.2031C29.1974 28.2031 31.1474 27.081 32.1952 25.2744L30.1608 24.1006C29.5316 25.1855 28.361 25.8594 27.1064 25.8594C25.5741 25.8594 24.2674 24.8798 23.7823 23.5156H32.982V22.3438C32.982 19.1129 30.3462 16.4844 27.1064 16.4844ZM23.7823 21.1719C24.2674 19.8077 25.5741 18.8281 27.1064 18.8281C28.6386 18.8281 29.9453 19.8077 30.4304 21.1719H23.7823Z" fill="#070707" stroke="#070707" stroke-width="0.5"/>
<path d="M22.4058 11.7969H31.8068V14.1406H22.4058V11.7969Z" fill="#070707" stroke="#070707" stroke-width="0.5"/>
</g>
<defs>
<clipPath id="clip0_167_538">
<rect width="40.111" height="40" fill="white"/>
</clipPath>
</defs>
</svg>
