<svg width="59" height="89" viewBox="0 0 59 89" fill="none" xmlns="http://www.w3.org/2000/svg">
<g clip-path="url(#clip0_167_597)">
<path d="M14.5586 88.9913C22.5972 88.9913 29.1173 82.3515 29.1173 74.1655V59.3398H14.5586C6.52013 59.3398 0 65.9796 0 74.1655C0 82.3515 6.52013 88.9913 14.5586 88.9913Z" fill="#0ACF83"/>
<path d="M0 44.4956C0 36.3097 6.52013 29.6699 14.5586 29.6699H29.1173V59.3395H14.5586C6.52013 59.3213 0 52.6816 0 44.4956Z" fill="#A259FF"/>
<path d="M0 14.8257C0 6.63973 6.52013 0 14.5586 0H29.1173V29.6696H14.5586C6.52013 29.6696 0 23.0117 0 14.8257Z" fill="#F24E1E"/>
<path d="M29.1353 0H43.6939C51.7324 0 58.2525 6.63973 58.2525 14.8257C58.2525 23.0117 51.7324 29.6514 43.6939 29.6514H29.1353V0Z" fill="#FF7262"/>
<path d="M58.2525 44.4956C58.2525 52.6816 51.7324 59.3213 43.6939 59.3213C35.6554 59.3213 29.1353 52.6816 29.1353 44.4956C29.1353 36.3097 35.6554 29.6699 43.6939 29.6699C51.7324 29.6699 58.2525 36.3097 58.2525 44.4956Z" fill="#1ABCFE"/>
</g>
<defs>
<clipPath id="clip0_167_597">
<rect width="58.2524" height="88.9906" fill="white"/>
</clipPath>
</defs>
</svg>
