<svg width="41" height="41" viewBox="0 0 41 41" fill="none" xmlns="http://www.w3.org/2000/svg">
<path d="M34.5329 0.25H6.1338C2.88944 0.25 0.25 2.88236 0.25 6.11803V34.4411C0.25 37.6767 2.88944 40.3091 6.1338 40.3091H34.5329C37.7773 40.3091 40.4167 37.6767 40.4167 34.4411V6.11803C40.4167 2.88236 37.7773 0.25 34.5329 0.25ZM38.0632 34.4411C38.0632 36.3824 36.4795 37.9619 34.5329 37.9619H6.1338C4.18724 37.9619 2.60352 36.3824 2.60352 34.4411V6.11803C2.60352 4.17669 4.18724 2.59721 6.1338 2.59721H34.5329C36.4795 2.59721 38.0632 4.17669 38.0632 6.11803V34.4411Z" fill="#070707" stroke="#070707" stroke-width="0.5"/>
<path d="M26.583 15.6172C27.4759 15.6432 28.3225 15.8445 29.085 16.3242C30.0621 16.9392 30.6576 17.8392 31.0068 18.9199C31.2791 19.7624 31.3692 20.6325 31.3701 21.5137C31.3723 24.0522 31.3704 26.5914 31.3701 29.1299C31.3701 29.1746 31.3663 29.219 31.3633 29.2705H27.082V22.084C27.082 21.5866 27.0451 21.0946 26.9199 20.6084C26.6606 19.6028 25.9698 19.1284 25.2324 19.0254C24.4966 18.9226 23.714 19.1896 23.2676 19.667C22.8208 20.1449 22.527 20.6867 22.5146 21.3564C22.5119 21.5133 22.5029 21.6732 22.5029 21.8311C22.502 24.2469 22.502 26.6632 22.502 29.0791V29.2695H18.2295V15.9355H22.5V17.7227L22.5098 17.7266C22.5205 17.7312 22.5324 17.7373 22.5439 17.7422L22.5547 17.7461L22.5625 17.7363C22.5929 17.6951 22.625 17.6541 22.6553 17.6123C23.0857 17.0145 23.579 16.4853 24.2344 16.1279C24.9666 15.7283 25.7585 15.5933 26.583 15.6172Z" fill="#070707" stroke="#070707" stroke-width="0.0306072"/>
<path d="M15.5691 15.9316V29.2783H11.3191V15.9316H15.5691Z" fill="#070707" stroke="#070707" stroke-width="0.0306072"/>
<path d="M13.627 9.2793C14.2971 9.27838 14.8691 9.51549 15.2734 9.92188C15.6777 10.3282 15.9156 10.9044 15.918 11.5811C15.9201 12.2505 15.6806 12.8221 15.2705 13.2256C14.8605 13.629 14.2788 13.8659 13.5957 13.8662C12.2633 13.8671 11.314 12.9152 11.3115 11.5762C11.3091 10.2365 12.2716 9.28122 13.627 9.2793Z" fill="#070707" stroke="#070707" stroke-width="0.0306072"/>
</svg>
