<svg width="40" height="40" viewBox="0 0 40 40" fill="none" xmlns="http://www.w3.org/2000/svg">
<path d="M27.7607 0.5C33.7253 0.5 38.6084 5.48497 38.6084 11.6123V28.3857C38.6084 34.5133 33.7254 39.498 27.7705 39.498H11.3564C5.39055 39.498 0.500019 34.5216 0.5 28.4053V11.6221C0.5 5.49528 5.39134 0.509766 11.3564 0.509766H11.8564V0.5H27.7607ZM11.3564 2.58594C6.4438 2.58594 2.51891 6.61753 2.50879 11.6299V28.415C2.50888 33.4011 6.43595 37.4316 11.3564 37.4316H27.7705C32.6737 37.4316 36.5996 33.3994 36.5996 28.3955V11.6221C36.5996 6.61783 32.673 2.58594 27.7607 2.58594H11.3564ZM19.5635 9.7373C25.0679 9.7373 29.5928 14.3481 29.5928 20.0039C29.5927 25.6596 25.0679 30.2695 19.5635 30.2695C14.0591 30.2695 9.53422 25.6596 9.53418 20.0039C9.53418 14.3482 14.059 9.73733 19.5635 9.7373ZM19.5635 11.8135C15.1029 11.8135 11.543 15.4703 11.543 20.0039C11.543 24.5374 15.1029 28.1943 19.5635 28.1943C24.0241 28.1943 27.5839 24.5375 27.584 20.0039C27.584 15.4703 24.0241 11.8135 19.5635 11.8135ZM31.5967 6.66211C32.1466 6.66211 32.6003 7.10953 32.6006 7.69922C32.6006 8.28915 32.1468 8.7373 31.5967 8.7373C31.0466 8.73722 30.5928 8.28909 30.5928 7.69922C30.593 7.10958 31.0468 6.6622 31.5967 6.66211Z" fill="#070707" stroke="#070707"/>
</svg>
