<svg width="21" height="20" viewBox="0 0 21 20" fill="none" xmlns="http://www.w3.org/2000/svg">
<path d="M9.36458 0.689658C9.66442 -0.230619 10.9663 -0.230618 11.2662 0.689659L13.0173 6.06406C13.1514 6.47568 13.5352 6.75426 13.9681 6.75426H19.6288C20.5982 6.75426 21.0006 7.99529 20.2156 8.56405L15.6407 11.8787C15.2892 12.1333 15.1421 12.5856 15.2766 12.9983L17.0252 18.3649C17.3252 19.2858 16.2719 20.0527 15.4876 19.4845L10.9021 16.1621C10.5521 15.9085 10.0787 15.9085 9.72866 16.1621L5.14312 19.4845C4.35886 20.0527 3.30557 19.2858 3.60559 18.3649L5.35417 12.9983C5.48862 12.5856 5.34154 12.1333 4.99008 11.8787L0.415206 8.56405C-0.369801 7.99529 0.0325301 6.75426 1.00192 6.75426H6.66268C7.09561 6.75426 7.47937 6.47568 7.61348 6.06406L9.36458 0.689658Z" fill="#E5E5E5"/>
</svg>
